<mxfile host="app.diagrams.net" modified="2023-10-20T15:44:47.306Z" agent="Mozilla/5.0 (Macintosh; Intel Mac OS X 10.15; rv:109.0) Gecko/20100101 Firefox/118.0" version="21.8.2" etag="ea55t0s0zfb2YBDLL9bG" type="github">
  <diagram name="Page-1" id="W2kXp5xiKqwP69uOxX51">
    <mxGraphModel>
      <root>
        <mxCell id="0" />
        <mxCell id="1" parent="0" />
      </root>
    </mxGraphModel>
  </diagram>
</mxfile>
